<?xml version="1.0" encoding="iso-8859-1"?>
<!-- Uploaded to: SVG Repo, www.svgrepo.com, Generator: SVG Repo Mixer Tools -->
<!DOCTYPE svg PUBLIC "-//W3C//DTD SVG 1.1//EN" "http://www.w3.org/Graphics/SVG/1.1/DTD/svg11.dtd">
<svg fill="#000000" height="800px" width="800px" version="1.1" id="Capa_1" xmlns="http://www.w3.org/2000/svg" xmlns:xlink="http://www.w3.org/1999/xlink" 
	 viewBox="0 0 252 252" xml:space="preserve">
<g>
	<path d="M204.795,83.441c-3.559-3.47-9.256-3.399-12.727,0.16l-64.073,65.706l-7.379-7.379l44.623-45.761
		c3.47-3.559,3.399-9.256-0.16-12.727c-3.559-3.47-9.257-3.399-12.727,0.16L107.888,129.2l-5.32-5.32
		c-3.515-3.515-9.213-3.515-12.728,0c-3.515,3.515-3.515,9.213,0,12.728l5.48,5.48l-7.04,7.22l-25.428-25.428
		c-3.515-3.515-9.213-3.515-12.728,0c-3.515,3.515-3.515,9.213,0,12.728l31.873,31.873c1.688,1.688,3.978,2.636,6.364,2.636
		c0.019,0,0.038,0,0.057,0c2.407-0.015,4.707-0.994,6.387-2.717l13.245-13.583l13.663,13.663c1.688,1.688,3.978,2.636,6.364,2.636
		c0.019,0,0.038,0,0.057,0c2.407-0.015,4.707-0.994,6.387-2.717l70.436-72.231C208.426,92.609,208.354,86.911,204.795,83.441z"/>
	<path d="M126,0C56.523,0,0,56.523,0,126s56.523,126,126,126s126-56.523,126-126S195.477,0,126,0z M126,234
		c-59.551,0-108-48.449-108-108S66.449,18,126,18s108,48.449,108,108S185.551,234,126,234z"/>
</g>
</svg>